<?xml version="1.0"?>
<svg xmlns="http://www.w3.org/2000/svg" enable-background="new 0 0 36 36" height="512" viewBox="0 0 36 36" width="512" class=""><g><path d="m8.377 31.833c6.917 0 11.667 3.583 15 3.583s10.333-1.916 10.333-17.249-9.417-17.584-13.083-17.584c-17.167 0-24.5 31.25-12.25 31.25z" fill="#efefef" data-original="#EFEFEF" class=""/><path d="m8.75 11.75h18.5v8.5h-18.5z" fill="#2fdf84" data-original="#2FDF84" class="active-path" style="fill:#009F8D" data-old_color="#2fdf84"/><g fill="#f3f3f1"><circle cx="10" cy="24" r="1.25" data-original="#F3F3F1" class=""/><circle cx="13" cy="24" r="1.25" data-original="#F3F3F1" class=""/><circle cx="23" cy="24" r="1.25" data-original="#F3F3F1" class=""/><circle cx="26" cy="24" r="1.25" data-original="#F3F3F1" class=""/></g><path d="m8.75 11.75h2.25v8.5h-2.25z" fill="#00b871" data-original="#00B871" class=""/><g fill="#a4afc1"><path d="m7.85 7.305h2v1h-2z" transform="matrix(.707 -.707 .707 .707 -2.927 8.544)" data-original="#A4AFC1" class=""/><path d="m3.785 11.371h2v1h-2z" transform="matrix(.707 -.707 .707 .707 -6.993 6.86)" data-original="#A4AFC1" class=""/><path d="m4.285 6.628h1v2h-1z" transform="matrix(.707 -.707 .707 .707 -3.992 5.615)" data-original="#A4AFC1" class=""/><path d="m31 19.75c-.827 0-1.5-.673-1.5-1.5s.673-1.5 1.5-1.5 1.5.673 1.5 1.5-.673 1.5-1.5 1.5zm0-2c-.276 0-.5.225-.5.5s.224.5.5.5.5-.225.5-.5-.224-.5-.5-.5z" data-original="#A4AFC1" class=""/></g><path d="m27.25 21h-18.5c-.414 0-.75-.336-.75-.75v-8.5c0-.414.336-.75.75-.75h18.5c.414 0 .75.336.75.75v8.5c0 .414-.336.75-.75.75zm-17.75-1.5h17v-7h-17z" data-original="#000000" class=""/><path d="m11.25 13.75h1.5v4.5h-1.5z" data-original="#000000" class=""/><path d="m15.25 13.75h1.5v4.5h-1.5z" data-original="#000000" class=""/><path d="m19.25 13.75h1.5v4.5h-1.5z" data-original="#000000" class=""/><path d="m23.25 13.75h1.5v4.5h-1.5z" data-original="#000000" class=""/><path d="m6.75 21.5h22.5v1.5h-22.5z" data-original="#000000" class=""/><path d="m10 26c-1.103 0-2-.897-2-2s.897-2 2-2 2 .897 2 2-.897 2-2 2zm0-2.5c-.276 0-.5.225-.5.5s.224.5.5.5.5-.225.5-.5-.224-.5-.5-.5z" data-original="#000000" class=""/><path d="m13 26c-1.103 0-2-.897-2-2s.897-2 2-2 2 .897 2 2-.897 2-2 2zm0-2.5c-.276 0-.5.225-.5.5s.224.5.5.5.5-.225.5-.5-.224-.5-.5-.5z" data-original="#000000" class=""/><path d="m23 26c-1.103 0-2-.897-2-2s.897-2 2-2 2 .897 2 2-.897 2-2 2zm0-2.5c-.276 0-.5.225-.5.5s.224.5.5.5.5-.225.5-.5-.224-.5-.5-.5z" data-original="#000000" class=""/><path d="m26 26c-1.103 0-2-.897-2-2s.897-2 2-2 2 .897 2 2-.897 2-2 2zm0-2.5c-.276 0-.5.225-.5.5s.224.5.5.5.5-.225.5-.5-.224-.5-.5-.5z" data-original="#000000" class=""/></g> </svg>
