<?xml version="1.0"?>
<svg xmlns="http://www.w3.org/2000/svg" enable-background="new 0 0 36 36" height="512" viewBox="0 0 36 36" width="512" class=""><g><path d="m1.063 15.31c3.655 5.872 3.123 11.798 4.885 14.628s7.088 7.76 20.105-.343 9.951-17.286 8.014-20.399c-9.072-14.574-39.477-4.285-33.004 6.114z" fill="#efefef" data-original="#EFEFEF" class=""/><path d="m29.25 23.75-17 1.5v-13.5l17 1.5z" fill="#f3f3f1" data-original="#F3F3F1" class=""/><path d="m6.75 13.25v10.5l5.5 1.5v-13.5z" fill="#2fdf84" data-original="#2FDF84" class="active-path" style="fill:#009F8D" data-old_color="#2fdf84"/><path d="m14.5 11.949-2.25-.199v13.5l2.25-.199z" fill="#d5dbe1" data-original="#D5DBE1"/><path d="m9 23.75v-10.5l3.25-.886v-.614l-5.5 1.5v10.5l5.5 1.5v-.614z" fill="#00b871" data-original="#00B871"/><g fill="#a4afc1"><path d="m6.352 8.598h2.001v1h-2.001z" transform="matrix(.707 -.707 .707 .707 -4.28 7.864)" data-original="#A4AFC1"/><path d="m2.286 12.664h2v1h-2z" transform="matrix(.707 -.707 .707 .707 -8.346 6.179)" data-original="#A4AFC1"/><path d="m2.786 7.922h1v2h-1z" transform="matrix(.707 -.707 .707 .707 -5.345 4.935)" data-original="#A4AFC1"/><path d="m28.141 30.008c-.827 0-1.5-.673-1.5-1.5s.673-1.5 1.5-1.5 1.5.673 1.5 1.5-.673 1.5-1.5 1.5zm0-2c-.275 0-.5.225-.5.5s.225.5.5.5.5-.225.5-.5-.225-.5-.5-.5z" data-original="#A4AFC1"/></g><path d="m12.25 26c-.187 0-.367-.069-.507-.197-.155-.142-.243-.343-.243-.553v-13.5c0-.21.088-.411.243-.553.156-.142.354-.213.573-.194l17 1.5c.387.034.684.358.684.747v10.5c0 .389-.297.713-.684.747l-17 1.5c-.022.002-.045.003-.066.003zm.75-13.431v11.861l15.5-1.367v-9.127z" data-original="#000000" class="" style="fill:#000000"/><path d="m12.053 25.974-5.5-1.5c-.326-.089-.553-.386-.553-.724v-10.5c0-.338.227-.635.553-.724l5.5-1.5.395 1.447-4.948 1.35v9.354l4.947 1.35z" data-original="#000000" class="" style="fill:#000000"/><path d="m8.5 12.57h1.5v11.86h-1.5z" data-original="#000000" class="" style="fill:#000000"/><path d="m14.5 14.75h1.5v7.5h-1.5z" data-original="#000000" class="" style="fill:#000000"/><path d="m18.5 15.25h1.5v6.5h-1.5z" data-original="#000000" class="" style="fill:#000000"/><path d="m22.5 15.75h1.5v5.5h-1.5z" data-original="#000000" class="" style="fill:#000000"/><path d="m26 16.25h1.5v4.75h-1.5z" data-original="#000000" class="" style="fill:#000000"/></g> </svg>
