<?xml version="1.0"?>
<svg xmlns="http://www.w3.org/2000/svg" id="Layer_1" height="512" viewBox="0 0 150 150" width="512" data-name="Layer 1" class=""><g><circle cx="75" cy="75" fill="#334d5c" r="64" data-original="#334D5C" class="" style="fill:#007B6D" data-old_color="#334d5c"/><path d="m91.82 67.29-6.82-6.84-35.92 33a6.91 6.91 0 1 0 9.76 9.76z" fill="#ebf0f3" data-original="#EBF0F3" class=""/><g fill="#e1e6e9"><path d="m49.83 102.43a5.49 5.49 0 0 1 .17-7.93l34.93-32.1 4.93 4.93-32.09 34.94a5.51 5.51 0 0 1 -7.94.16z" data-original="#E1E6E9" class=""/><path d="m103.81 68.57a14.22 14.22 0 1 1 -7-23.93l-6.19 6.18 2.28 8.52 8.52 2.28 6.18-6.19a14.21 14.21 0 0 1 -3.79 13.14z" data-original="#E1E6E9" class=""/><path d="m51.56 49.82-6.82-4.1-2.71 2.71 4.1 6.82 6.82 4.1.04-.05 13.57 13.57 2.62-2.63-13.56-13.56.04-.04z" data-original="#E1E6E9" class=""/></g><path d="m63.35 69.7h10.53v5.21h-10.53z" fill="#d15241" transform="matrix(.707 -.707 .707 .707 -31.03 69.69)" data-original="#D15241" class="active-path" style="fill:#334D5C" data-old_color="#d15241"/><path d="m73 67.86-8.86 8.85a1.27 1.27 0 0 0 0 1.79l25.66 25.66a5.26 5.26 0 0 0 7.45 0l3.19-3.19a5.26 5.26 0 0 0 0-7.45l-25.63-25.66a1.26 1.26 0 0 0 -1.81 0z" fill="#e56353" data-original="#E56353" class="" style="fill:#00DCC3" data-old_color="#e56353"/><path d="m68.75 76.84a1.23 1.23 0 0 0 0 1.74l21.87 21.88a1.24 1.24 0 0 0 1.75-1.75l-21.87-21.87a1.23 1.23 0 0 0 -1.75 0z" fill="#d15241" data-original="#D15241" class="active-path" style="fill:#334D5C" data-old_color="#d15241"/><path d="m73.15 72.44a1.23 1.23 0 0 0 0 1.74l21.85 21.88a1.24 1.24 0 0 0 1.75-1.75l-21.86-21.87a1.23 1.23 0 0 0 -1.74 0z" fill="#d15241" data-original="#D15241" class="active-path" style="fill:#334D5C" data-old_color="#d15241"/></g> </svg>
